#!OML:ASF I:\Actors\actors\Patient Classification 2\Patient 1\Session 1\actor1.ASF
:FULLY-SPECIFIED
:DEGREES
918
root -0.817246 18.1 5.90232 -1.58816 -2.64557 -5.03785
lowerback 4.4772 1.75255 1.47867
upperback 0.0107735 2.43905 1.02035
thorax -2.48031 1.20372 0.0606372
lowerneck -11.9702 -3.00966 -3.09048
upperneck 16.8556 -4.59005 5.68044
head 7.34938 -1.88628 1.90762
rclavicle 1.23806e-014 1.31198e-014
rhumerus -51.9358 6.94313 -86.005
rradius 65.806
rwrist 6.7426
rhand -3.88727 -31.9543
rfingers 7.12502
rthumb 21.8622 -60.7393
lclavicle 1.23806e-014 1.31198e-014
lhumerus -42.3267 0.909557 90.902
lradius 41.5805
lwrist -2.81762
lhand -5.60303 -22.7013
lfingers 7.12502
lthumb 20.2139 6.26691
rfemur 0 0 0
rtibia 0
rfoot 0 0
rtoes 0
lfemur 21.0852 -8.5127 -13.143
ltibia -19.6544
lfoot -4.48813 21.6985
ltoes -6.85776
919
root -0.824477 18.0958 5.91204 -1.67562 -2.8304 -4.98078
lowerback 4.25779 1.63826 1.6069
upperback -0.0273921 2.28972 1.05857
thorax -2.39438 1.12853 0.0441231
lowerneck -11.9226 -2.84563 -2.80426
upperneck 16.8602 -4.34368 5.26681
head 7.31483 -1.78836 1.75077
rclavicle 1.15994e-014 7.55382e-015
rhumerus -52.4094 3.86398 -83.6692
rradius 65.4667
rwrist 6.97517
rhand -3.46178 -32.3346
rfingers 7.12502
rthumb 22.2707 -61.0713
lclavicle 1.15994e-014 7.55382e-015
lhumerus -42.0607 1.07613 91.2199
lradius 41.3259
lwrist -3.81365
lhand -5.33595 -23.1612
lfingers 7.12502
lthumb 20.4706 5.77968
rfemur 0 0 0
rtibia 0
rfoot 0 0
rtoes 0
lfemur 21.2317 -8.64714 -13.2652
ltibia -19.5599
lfoot -4.6673 21.9485
ltoes -6.92511
920
root -0.832466 18.091 5.92273 -1.76489 -2.95384 -4.92013
lowerback 4.02147 1.52296 1.71783
upperback -0.0721063 2.13711 1.09184
thorax -2.30657 1.05188 0.0319062
lowerneck -11.8337 -2.70925 -2.69642
upperneck 16.9158 -4.14688 5.08198
head 7.30206 -1.70485 1.69358
rclavicle 2.51952e-014 -4.77083e-015
rhumerus -52.9689 0.983985 -81.4532
rradius 65.1028
rwrist 6.80553
rhand -3.20582 -33.3446
rfingers 7.12502
rthumb 22.5164 -62.0518
lclavicle 2.51952e-014 -4.77083e-015
lhumerus -42.6616 0.69802 91.732
lradius 43.4443
lwrist -4.25699
lhand -4.57596 -21.8218
lfingers 7.12502
lthumb 21.2008 7.03892
rfemur 0 0 0
rtibia 0
rfoot 0 0
rtoes 0
lfemur 21.371 -8.70101 -13.3598
ltibia -19.4882
lfoot -4.82845 22.0809
ltoes -7.05571
921
root -0.840383 18.0865 5.93167 -1.85673 -3.09504 -4.89442
lowerback 3.79737 1.44016 1.85806
upperback -0.093748 2.02875 1.14396
thorax -2.2014 0.99731 0.0192941
lowerneck -11.7573 -2.57978 -2.67331
upperneck 16.9762 -3.96374 5.00773
head 7.29828 -1.62299 1.68488
rclavicle 2.21459e-015 1.47101e-014
rhumerus -53.5902 -1.4864 -79.4849
rradius 64.5699
rwrist 6.43785
rhand -4.37483 -34.4419
rfingers 7.12502
rthumb 21.394 -63.2808
lclavicle 2.21459e-015 1.47101e-014
lhumerus -42.2611 0.81723 92.0498
lradius 43.09
lwrist -4.94035
lhand -3.83101 -21.0905
lfingers 7.12502
lthumb 21.9162 7.68815
rfemur 0 0 0
rtibia 0
rfoot 0 0
rtoes 0
lfemur 21.5292 -8.76676 -13.4185
ltibia -19.4466
lfoot -5.01851 22.2554
ltoes -6.89915
922
root -0.848184 18.0812 5.93791 -1.97109 -3.24882 -4.89234
lowerback 3.63643 1.37909 2.04573
upperback -0.11226 1.95187 1.17417
thorax -2.12597 0.95761 -0.0462768
lowerneck -11.6921 -2.48054 -2.56422
upperneck 17.0477 -3.82987 4.88469
head 7.29974 -1.56323 1.64087
rclavicle 3.19298e-015 -1.49089e-014
rhumerus -54.2046 -3.55397 -77.8557
rradius 63.7578
rwrist 5.42383
rhand -7.17541 -35.0115
rfingers 7.12502
rthumb 18.7021 -64.1325
lclavicle 3.19298e-015 -1.49089e-014
lhumerus -41.8831 0.859853 92.313
lradius 42.8104
lwrist -5.19805
lhand -2.59583 -20.3254
lfingers 7.12502
lthumb 23.1018 8.30961
rfemur 0 0 0
rtibia 0
rfoot 0 0
rtoes 0
lfemur 21.7194 -8.84119 -13.4594
ltibia -19.4221
lfoot -5.18145 22.4466
ltoes -6.61372
923
root -0.856091 18.0762 5.94222 -2.0841 -3.38539 -4.87449
lowerback 3.51337 1.31048 2.22579
upperback -0.151242 1.86504 1.17578
thorax -2.09269 0.912444 -0.138046
lowerneck -11.616 -2.39105 -2.53852
upperneck 17.1617 -3.71878 4.8856
head 7.31828 -1.50828 1.64903
rclavicle -1.54369e-015 -1.19271e-015
rhumerus -54.7463 -5.36673 -76.3725
rradius 62.7912
rwrist 4.18906
rhand -9.42751 -35.6114
rfingers 7.12502
rthumb 16.5349 -64.9269
lclavicle -1.54369e-015 -1.19271e-015
lhumerus -41.6317 0.821505 92.5545
lradius 42.7223
lwrist -5.15123
lhand -2.10287 -19.9797
lfingers 7.12502
lthumb 23.5747 8.59532
rfemur 0 0 0
rtibia 0
rfoot 0 0
rtoes 0
lfemur 21.8942 -8.857 -13.5013
ltibia -19.4133
lfoot -5.24971 22.5768
ltoes -6.49097
924
root -0.86404 18.0725 5.94589 -2.18744 -3.50713 -4.84978
lowerback 3.37948 1.24729 2.36372
upperback -0.168762 1.78289 1.20196
thorax -2.03375 0.87059 -0.180998
lowerneck -11.5831 -2.29418 -2.48985
upperneck 17.2897 -3.57717 4.75811
head 7.34504 -1.44796 1.61411
rclavicle 4.68945e-014 1.09332e-014
rhumerus -55.1232 -6.9906 -74.915
rradius 61.6364
rwrist 3.48617
rhand -10.8679 -36.2933
rfingers 7.12502
rthumb 15.1477 -65.7189
lclavicle 4.68945e-014 1.09332e-014
lhumerus -41.3824 0.660106 92.8734
lradius 42.7282
lwrist -4.96375
lhand -2.18906 -19.7981
lfingers 7.12502
lthumb 23.492 8.78754
rfemur 0 0 0
rtibia 0
rfoot 0 0
rtoes 0
lfemur 22.0687 -8.99213 -13.5706
ltibia -19.4208
lfoot -5.3732 22.7919
ltoes -6.27393
925
root -0.869651 18.0681 5.95686 -2.30606 -3.7622 -4.8406
lowerback 3.15526 1.23112 2.55716
upperback -0.146108 1.76087 1.23424
thorax -1.88042 0.859524 -0.249072
lowerneck -11.552 -2.19784 -2.34634
upperneck 17.4042 -3.42279 4.4699
head 7.36305 -1.39005 1.5121
rclavicle -2.92338e-014 1.19271e-015
rhumerus -55.3317 -8.35978 -73.6354
rradius 60.1327
rwrist 2.82699
rhand -12.3238 -36.614
rfingers 7.12502
rthumb 13.745 -66.14
lclavicle -2.92338e-014 1.19271e-015
lhumerus -41.168 0.455476 93.2099
lradius 42.8329
lwrist -4.65976
lhand -2.51081 -20.1414
lfingers 7.12502
lthumb 23.1834 8.48344
rfemur 0 0 0
rtibia 0
rfoot 0 0
rtoes 0
lfemur 22.3501 -9.3583 -13.7206
ltibia -19.4298
lfoot -5.73008 23.3097
ltoes -5.79817
926
root -0.897362 18.0688 5.9241 -2.3962 -3.36589 -4.85819
lowerback 3.66616 1.00338 2.38218
upperback -0.343514 1.47567 1.3236
thorax -2.38325 0.713293 -0.0590586
lowerneck -11.3861 -2.10381 -2.20885
upperneck 17.4752 -3.28896 4.28015
head 7.34615 -1.33581 1.4421
rclavicle 3.78995e-014 1.15295e-014
rhumerus -55.4639 -9.54288 -72.5655
rradius 58.3401
rwrist 2.11256
rhand -13.4841 -37.0065
rfingers 7.12502
rthumb 12.6265 -66.6049
lclavicle 3.78995e-014 1.15295e-014
lhumerus -40.1438 0.641099 93.3499
lradius 40.737
lwrist -4.63846
lhand -3.79916 -22.2441
lfingers 7.12502
lthumb 21.9468 6.53099
rfemur 0 0 0
rtibia 0
rfoot 0 0
rtoes 0
lfemur 22.1825 -8.40277 -13.2693
ltibia -19.4469
lfoot -5.00393 22.0553
ltoes -6.83018
927
root -0.907494 18.0673 5.9246 -2.41629 -3.48348 -4.85984
lowerback 3.5722 0.955503 2.51981
upperback -0.431719 1.41693 1.32765
thorax -2.41917 0.681322 -0.127712
lowerneck -11.1857 -2.00048 -1.97125
upperneck 17.5305 -3.14875 4.02892
head 7.31571 -1.2779 1.33616
rclavicle 1.67041e-014 5.56597e-015
rhumerus -55.4303 -10.8168 -71.5276
rradius 56.1932
rwrist 1.84028
rhand -14.2116 -37.5083
rfingers 7.12502
rthumb 11.925 -67.1487
lclavicle 1.67041e-014 5.56597e-015
lhumerus -40.0529 0.395267 93.5452
lradius 40.814
lwrist -4.43592
lhand -4.18098 -22.9974
lfingers 7.12502
lthumb 21.5802 5.82019
rfemur 0 0 0
rtibia 0
rfoot 0 0
rtoes 0
lfemur 22.2405 -8.31126 -13.2292
ltibia -19.4559
lfoot -4.99896 22.0938
ltoes -6.94832
928
root -0.91998 18.0675 5.92054 -2.43089 -3.50016 -4.92385
lowerback 3.50565 0.865728 2.64938
upperback -0.49644 1.30298 1.36312
thorax -2.44875 0.622244 -0.156932
lowerneck -11.1208 -1.88855 -1.73516
upperneck 17.6444 -2.99526 3.77128
head 7.32873 -1.2118 1.22863
rclavicle 1.08648e-014 -1.59028e-015
rhumerus -55.2013 -12.1761 -70.4448
rradius 53.739
rwrist 2.09787
rhand -14.4149 -37.6825
rfingers 7.12502
rthumb 11.729 -67.3341
lclavicle 1.08648e-014 -1.59028e-015
lhumerus -40.8376 -0.149856 93.7783
lradius 43.0555
lwrist -4.09639
lhand -3.5332 -22.358
lfingers 7.12502
lthumb 22.2022 6.38693
rfemur 0 0 0
rtibia 0
rfoot 0 0
rtoes 0
lfemur 22.2336 -8.21343 -13.0877
ltibia -19.4442
lfoot -4.92051 22.0175
ltoes -7.19447
